# xmcd CD database file
#
# Track frame offsets:
#	150
#	8416
#	22591
#	38117
#	50567
#	75841
#	89239
#	107632
#	120553
#	126926
#	134685
#	152395
#	163968
#	177014
#
# Disc length: 2544 seconds
#
# Revision: 0
# Processed by: cddbd v1.5PL3 Copyright (c) Steve Scherf et al.
# Submitted via: CDex 1.51
#
DISCID=a309ee0e
DTITLE=Donald Rubinstein - Time Again
DYEAR=1997
DGENRE=Jazz
TTITLE0=Fingers
TTITLE1=Long Night
TTITLE2=I Am Just and Angel
TTITLE3=Down the Road
TTITLE4=Circle of Repent
TTITLE5=World Full of Danger
TTITLE6=Time Again
TTITLE7=Cries Like an Angel
TTITLE8=Sword Swallower
TTITLE9=World of Science
TTITLE10=Things Go Wrong
TTITLE11=Lily's Lullaby
TTITLE12=Purple Sage
TTITLE13=I Just Want To Be Human
EXTD=YEAR: 1997
EXTT0=
EXTT1=
EXTT2=
EXTT3=
EXTT4=
EXTT5=
EXTT6=
EXTT7=
EXTT8=
EXTT9=
EXTT10=
EXTT11=
EXTT12=
EXTT13=
PLAYORDER=
